<?xml version="1.0" encoding="UTF-8" standalone="no"?><!DOCTYPE svg PUBLIC "-//W3C//DTD SVG 1.1//EN" "http://www.w3.org/Graphics/SVG/1.1/DTD/svg11.dtd"><svg width="100%" height="100%" viewBox="0 0 2500 2500" version="1.1" xmlns="http://www.w3.org/2000/svg" xmlns:xlink="http://www.w3.org/1999/xlink" xml:space="preserve" xmlns:serif="http://www.serif.com/" style="fill-rule:evenodd;clip-rule:evenodd;stroke-linejoin:round;stroke-miterlimit:2;"><g><g><g><path d="M1741.38,797.442c124.972,-0 238.111,50.653 320.004,132.554l320.011,-320.004c-163.792,-163.801 -390.071,-265.108 -640.015,-265.108c-120.037,0 -234.591,23.422 -339.418,65.865l0,540.067c82.922,-94 204.209,-153.374 339.418,-153.374" style="fill:#fff;fill-rule:nonzero;"/></g><g><path d="M383.708,1702.55l-265.1,0l0,452.565l265.1,0c229.571,0 439.138,-85.514 598.703,-226.373c-106.264,-118.733 -185.085,-262.53 -226.467,-421.459c-81.688,117.955 -217.895,195.267 -372.236,195.267" style="fill:#fff;fill-rule:nonzero;"/></g><g><path d="M1741.38,1702.55c-249.943,0 -452.557,-202.613 -452.557,-452.557l-0,-848.545l-604.518,-0l-452.557,452.557l604.518,0l-0,395.988c-0,229.523 85.483,439.051 226.278,598.601c165.852,187.937 408.48,306.521 678.836,306.521c249.944,0 476.223,-101.314 640.015,-265.107l-320.011,-320.004c-81.893,81.901 -195.032,132.546 -320.004,132.546" style="fill:#fff;fill-rule:nonzero;"/></g></g></g></svg>